<svg xmlns="http://www.w3.org/2000/svg" viewBox="0 0 32 32">
  <defs>
    <linearGradient id="blue-gradient" x1="0%" y1="0%" x2="100%" y2="100%">
      <stop offset="0%" style="stop-color:#0052CC"/>
      <stop offset="100%" style="stop-color:#2684FF"/>
    </linearGradient>
  </defs>
  <path fill="url(#blue-gradient)" d="M4.5 24.9c-.4.7-.8 1.4-.8 1.4-.3.5-.1 1.1.4 1.4l5.3 3.2c.5.3 1.1.1 1.4-.4 0 0 .4-.6.8-1.4 2.1-3.6 4.3-3.2 8.2-1.5l5.4 2.4c.5.2 1.1 0 1.4-.5l2.9-5.5c.2-.5 0-1.1-.5-1.4l-5.4-2.4c-6.4-2.8-11.8-2.9-19.1 4.7z"/>
  <path fill="url(#blue-gradient)" d="M27.5 7.1c.4-.7.8-1.4.8-1.4.3-.5.1-1.1-.4-1.4L22.6 1.1c-.5-.3-1.1-.1-1.4.4 0 0-.4.6-.8 1.4-2.1 3.6-4.3 3.2-8.2 1.5L6.8 2c-.5-.2-1.1 0-1.4.5L2.5 8c-.2.5 0 1.1.5 1.4l5.4 2.4c6.4 2.8 11.8 2.9 19.1-4.7z"/>
</svg>

